<svg id="Layer_1" data-name="Layer 1" xmlns="http://www.w3.org/2000/svg" viewBox="0 0 110.54 110.55"><defs><style>.cls-1{fill:#c70d3a;}</style></defs><title>powe-efficient</title><path class="cls-1" d="M40.48,102a2.16,2.16,0,1,0,0-4.32,2.16,2.16,0,0,0,0,4.32Z" transform="translate(0.27 0.27)"/><path class="cls-1" d="M90.66,97.63a2.16,2.16,0,1,0,0,4.32,2.16,2.16,0,0,0,1.52-.63,2.15,2.15,0,0,0,0-3.06A2.16,2.16,0,0,0,90.66,97.63Z" transform="translate(0.27 0.27)"/><path class="cls-1" d="M97,75.43H91.8L80.06,58.67a12.64,12.64,0,0,0-10.35-5.4H44.78a11.26,11.26,0,0,0-10.49,7.1L28.24,75.51a8.75,8.75,0,0,0-7.6,8.67v3.09A18.72,18.72,0,0,1,4.05,68.69V67.62A18.71,18.71,0,0,1,22.74,48.93h22.5a11.92,11.92,0,0,0,11.41-8.49A23.53,23.53,0,0,0,56.08,0a2.14,2.14,0,0,0-2.16,0,23.53,23.53,0,0,0-1.6,39.75,7.61,7.61,0,0,1-7.08,4.84H22.74a23,23,0,0,0-23,23v1.07A23,23,0,0,0,20.64,91.61v3A7.32,7.32,0,0,0,28,102h2.27a10.48,10.48,0,1,0,0-4.32H28a3,3,0,0,1-3-3V84.18a4.44,4.44,0,0,1,4.43-4.43H97a9,9,0,0,1,8.94,9v8.93h-5.27a10.48,10.48,0,0,0-20.51,0H68.24a2.16,2.16,0,0,0,0,4.32H80.17a10.48,10.48,0,0,0,20.51,0h7.17a2.43,2.43,0,0,0,2.42-2.43V88.7A13.28,13.28,0,0,0,97,75.43Zm-50.54-55A19.3,19.3,0,0,1,55,4.43a19.21,19.21,0,0,1,2.16,30.26V26.48a2.16,2.16,0,1,0-4.32,0v7.88h0v.33A19.29,19.29,0,0,1,46.47,20.4Zm-6,73.22a6.17,6.17,0,1,1-6.16,6.17A6.18,6.18,0,0,1,40.48,93.62ZM86.53,75.43H65.39L77.83,63ZM75.12,59.6,62.35,72.37V57.59h7.36A8.32,8.32,0,0,1,75.12,59.6ZM58,75.43H43.24L58,60.64ZM38.3,62a7,7,0,0,1,6.48-4.39H55L37.14,75.43H32.92Zm52.12,44a6.17,6.17,0,1,1,6.17-6.16A6.17,6.17,0,0,1,90.42,106Z" transform="translate(0.27 0.27)"/><path class="cls-1" d="M58.52,97.63a2.15,2.15,0,1,0,1.53.63A2.2,2.2,0,0,0,58.52,97.63Z" transform="translate(0.27 0.27)"/></svg>