<svg height="512pt" viewBox="0 0 512 512" width="512pt" xmlns="http://www.w3.org/2000/svg"><path d="m450.566406 350.640625h-24.125l-54.351562-77.65625c-10.949219-15.644531-28.886719-24.984375-47.980469-24.984375h-115.429687c-21.519532 0-40.585938 12.910156-48.582032 32.890625l-28.046875 70.109375c-19.84375 2.609375-35.214843 19.617188-35.214843 40.160156v14.289063c-43.171876-4.863281-76.835938-41.589844-76.835938-86.035157v-4.953124c0-47.742188 38.84375-86.585938 86.585938-86.585938h104.226562c24.910156 0 46.003906-16.589844 52.84375-39.300781 32.066406-19.796875 51.863281-55.070313 51.863281-92.816407 0-38.777343-20.886719-74.953124-54.511719-94.414062-3.097656-1.792969-6.917968-1.792969-10.015624 0-33.625 19.460938-54.511719 55.636719-54.511719 94.414062 0 35.84375 17.855469 69.453126 47.109375 89.699219-5.125 13.105469-17.878906 22.417969-32.777344 22.417969h-104.226562c-58.773438 0-106.585938 47.8125-106.585938 106.585938v4.953124c0 55.484376 42.617188 101.195313 96.835938 106.132813v14.003906c0 18.691407 15.203124 33.894531 33.894531 33.894531h10.515625c4.625 21.992188 24.167968 38.554688 47.515625 38.554688 26.769531 0 48.550781-21.78125 48.550781-48.554688 0-26.769531-21.78125-48.550781-48.550781-48.550781-23.347657 0-42.890625 16.5625-47.515625 38.550781h-10.515625c-7.664063 0-13.894531-6.230468-13.894531-13.894531v-48.390625c0-11.316406 9.203124-20.519531 20.519531-20.519531h1.550781.054688.03125 311.574218c22.84375 0 41.433594 18.585937 41.433594 41.433594v41.371093h-24.410156c-4.625-21.988281-24.167969-38.550781-47.515625-38.550781-23.34375 0-42.886719 16.5625-47.511719 38.550781h-55.25c-5.523438 0-10 4.476563-10 10 0 5.523438 4.476562 10 10 10h55.25c4.625 21.992188 24.167969 38.554688 47.511719 38.554688 23.347656 0 42.890625-16.5625 47.515625-38.554688h33.175781c6.195313 0 11.234375-5.039062 11.234375-11.234374v-50.136719c0-33.875-27.558594-61.433594-61.433594-61.433594zm-234.085937-254.886719c0-29.691406 15-57.515625 39.519531-73.972656 24.515625 16.457031 39.519531 44.28125 39.519531 73.972656 0 25.40625-10.992187 49.441406-29.519531 66.160156v-38c0-5.523437-4.476562-10-10-10s-10 4.476563-10 10v36.480469.007813 1.511718c-18.527344-16.71875-29.519531-40.753906-29.519531-66.160156zm-27.71875 339.140625c15.742187 0 28.550781 12.808594 28.550781 28.554688 0 15.742187-12.808594 28.550781-28.550781 28.550781-15.746094 0-28.554688-12.808594-28.554688-28.554688 0-15.742187 12.808594-28.550781 28.554688-28.550781zm213.269531-84.253906h-97.898438l57.589844-57.589844zm-52.835938-73.351563-59.140624 59.144532v-68.433594h34.054687c9.296875 0 18.175781 3.371094 25.085937 9.289062zm-79.140624 73.351563h-68.5l68.5-68.5zm-91.386719-62.324219c4.9375-12.339844 16.71875-20.316406 30.011719-20.316406h47.234374l-82.640624 82.640625h-19.539063zm241.40625 203.683594c-15.742188 0-28.550781-12.808594-28.550781-28.554688 0-15.742187 12.808593-28.550781 28.550781-28.550781 15.746093 0 28.554687 12.808594 28.554687 28.550781 0 15.746094-12.808594 28.554688-28.554687 28.554688zm0 0"/><path d="m188.761719 473.449219c2.628906 0 5.207031-1.070313 7.066406-2.929688 1.863281-1.859375 2.933594-4.441406 2.933594-7.070312 0-2.640625-1.070313-5.210938-2.933594-7.070313-1.859375-1.859375-4.4375-2.929687-7.066406-2.929687-2.632813 0-5.210938 1.070312-7.070313 2.929687-1.863281 1.859375-2.929687 4.429688-2.929687 7.070313 0 2.628906 1.066406 5.210937 2.929687 7.070312 1.859375 1.859375 4.4375 2.929688 7.070313 2.929688zm0 0"/><path d="m421.148438 453.449219c-2.636719 0-5.207032 1.070312-7.070313 2.929687-1.867187 1.859375-2.929687 4.429688-2.929687 7.070313 0 2.628906 1.0625 5.210937 2.929687 7.070312 1.863281 1.859375 4.441406 2.929688 7.070313 2.929688 2.632812 0 5.203124-1.070313 7.070312-2.929688 1.859375-1.859375 2.929688-4.441406 2.929688-7.070312 0-2.640625-1.070313-5.210938-2.929688-7.070313s-4.4375-2.929687-7.070312-2.929687zm0 0"/><path d="m272.308594 453.449219c-2.628906 0-5.207032 1.070312-7.070313 2.929687-1.859375 1.859375-2.929687 4.441406-2.929687 7.070313 0 2.628906 1.070312 5.210937 2.929687 7.070312 1.863281 1.859375 4.441407 2.929688 7.070313 2.929688 2.632812 0 5.210937-1.070313 7.070312-2.929688 1.871094-1.871093 2.929688-4.441406 2.929688-7.070312 0-2.628907-1.058594-5.210938-2.929688-7.070313-1.859375-1.859375-4.429687-2.929687-7.070312-2.929687zm0 0"/></svg>