<svg id="Layer_1" data-name="Layer 1" xmlns="http://www.w3.org/2000/svg" viewBox="0 0 86.78 105.79"><defs><style>.cls-1{fill:#c70d3a;}</style></defs><title>protect</title><path class="cls-1" d="M98.39,20.7a2.06,2.06,0,0,0-1.72-2l-4.41-.74a83.08,83.08,0,0,1-36-15.4,2,2,0,0,0-2.48,0,83.11,83.11,0,0,1-36,15.4l-4.43.74a2.08,2.08,0,0,0-1.72,2V36.41c0,21.39,6.13,41.74,21.26,57,10.56,10.64,21,14.24,21.47,14.39a1.79,1.79,0,0,0,.66.1,2.51,2.51,0,0,0,.66-.1c.44-.15,10.91-3.75,21.47-14.39,15.13-15.25,21.26-35.58,21.26-57V20.7ZM94.25,36.41c0,22.38-6.71,40.51-19.92,53.93A59.52,59.52,0,0,1,55,103.63,59.1,59.1,0,0,1,35.67,90.34C22.46,76.92,15.75,58.79,15.75,36.41V22.46L18.44,22A87.53,87.53,0,0,0,55,6.75,87.05,87.05,0,0,0,91.6,22l2.69.45V36.41Z" transform="translate(-11.61 -2.11)"/><path class="cls-1" d="M88.45,25.65a92.09,92.09,0,0,1-32.31-13.1,2,2,0,0,0-2.26,0A91.39,91.39,0,0,1,21.55,25.67a2.06,2.06,0,0,0-1.68,2s0,10.16,0,10.85a2.08,2.08,0,0,0,2.07,2h0a2.07,2.07,0,0,0,2-2.11c0-.64,0-9.06,0-9.06A94.8,94.8,0,0,0,55,16.75,96.5,96.5,0,0,0,86,29.4v7.05c0,31-15.24,50.76-31,58.3C42.06,88.5,30.06,73.92,25.81,54.36a2.06,2.06,0,0,0-4,.89c4.67,21.61,18.34,37.43,32.37,43.64a2,2,0,0,0,.83.16,2.09,2.09,0,0,0,.85-.18c17.86-8,34.28-29.73,34.28-62.46V27.68A2,2,0,0,0,88.45,25.65Z" transform="translate(-11.61 -2.11)"/></svg>