<svg id="Layer_1" data-name="Layer 1" xmlns="http://www.w3.org/2000/svg" viewBox="0 0 110.54 110.54"><defs><style>.cls-1{fill:#c70d3a;}</style></defs><title>speed</title><path class="cls-1" d="M53.67,56.76a2.18,2.18,0,0,0,1.3.43,2.14,2.14,0,0,0,1.72-.85l0-.05a2.16,2.16,0,1,0-3.41-2.65l-.08.11A2.15,2.15,0,0,0,53.67,56.76Z" transform="translate(0.27 0.27)"/><path class="cls-1" d="M94.08,15.92A54.91,54.91,0,0,0,55-.27a54.33,54.33,0,0,0-8,.58,2,2,0,0,0-.24,0A55.1,55.1,0,0,0,17.86,14.07a2.16,2.16,0,1,0,2.9,3.19c.48-.43,1-.85,1.45-1.26l2.67,4.61a41.36,41.36,0,0,0-12,12L10,31c.39-.74.81-1.48,1.24-2.2a2.16,2.16,0,0,0-3.7-2.22C6.72,28,5.94,29.47,5.23,30.94a.25.25,0,0,1,0,.07A55.4,55.4,0,0,0-.27,55a2.16,2.16,0,0,0,2.16,2.16H8.36A2.16,2.16,0,0,0,10.52,55,36.72,36.72,0,0,1,68.91,25.38L51.51,42.77A13,13,0,1,0,60.18,55a12.68,12.68,0,0,0-.73-4.29L76.84,33.32A36.71,36.71,0,0,1,83.93,55a2.16,2.16,0,0,0,4.32,0,41.14,41.14,0,0,0-4.47-18.61l14.44-8.34a50.6,50.6,0,0,1,7.69,24.79h-4.5a2.16,2.16,0,0,0,0,4.32h6.7A2.16,2.16,0,0,0,110.27,55,54.91,54.91,0,0,0,94.08,15.92ZM6.26,52.84H4.09A50.92,50.92,0,0,1,8.15,34.93l2.53,1.46A40.75,40.75,0,0,0,6.26,52.84ZM72.39,7.1,65.84,18.45A41,41,0,0,0,49.39,14V4.36A49.7,49.7,0,0,1,55,4.05,50.91,50.91,0,0,1,72.39,7.1ZM25.67,13.34A50.54,50.54,0,0,1,45.07,5v9a40.71,40.71,0,0,0-16.45,4.42ZM78,26l-2.53,2.53h0L48.14,55.92a1.3,1.3,0,0,1-1.83-1.84L76.19,24.21a1.28,1.28,0,0,1,.91-.38,1.3,1.3,0,0,1,.92.38A1.32,1.32,0,0,1,78,26ZM55.86,55a8.64,8.64,0,1,1-8.63-8.64c.22,0,.45,0,.67,0L43.26,51A5.61,5.61,0,0,0,51.2,59l4.63-4.64C55.85,54.55,55.86,54.77,55.86,55ZM81.62,32.65c-.53-.82-1.1-1.63-1.69-2.41l1.14-1.15a5.63,5.63,0,0,0,0-7.94,5.64,5.64,0,0,0-7.94,0L72,22.3c-.78-.6-1.59-1.16-2.41-1.7L76.41,8.77A51.32,51.32,0,0,1,95.78,24.48Z" transform="translate(0.27 0.27)"/><path class="cls-1" d="M58.14,90.81a2.16,2.16,0,0,0,0-4.32H51.23a2.16,2.16,0,0,0-2.16,2.16V101.2a2.16,2.16,0,0,0,2.16,2.16h6.91a2.16,2.16,0,1,0,0-4.31H53.39v-2h1.29a2.16,2.16,0,0,0,0-4.32H53.39v-2Z" transform="translate(0.27 0.27)"/><path class="cls-1" d="M41.18,86.49H38a2.16,2.16,0,0,0-2.16,2.16V101.2a2.16,2.16,0,0,0,4.32,0V97.09h1a5.3,5.3,0,0,0,0-10.6Zm0,6.28h-1v-2h1a1,1,0,0,1,0,2Z" transform="translate(0.27 0.27)"/><path class="cls-1" d="M72,90.81a2.16,2.16,0,0,0,0-4.32H65.05a2.16,2.16,0,0,0-2.16,2.16V101.2a2.15,2.15,0,0,0,2.16,2.16H72a2.16,2.16,0,0,0,0-4.31H67.21v-2H68.5a2.16,2.16,0,0,0,0-4.32H67.21v-2Z" transform="translate(0.27 0.27)"/><path class="cls-1" d="M82.32,86.49H78.86a2.16,2.16,0,0,0-2.15,2.16V101.2a2.15,2.15,0,0,0,2.15,2.16h3.46a5.61,5.61,0,0,0,5.61-5.61V92.11A5.62,5.62,0,0,0,82.32,86.49Zm1.29,11.26a1.32,1.32,0,0,1-1.29,1.3H81V90.81h1.3a1.31,1.31,0,0,1,1.29,1.3Z" transform="translate(0.27 0.27)"/><path class="cls-1" d="M27.36,90.81h3.78a2.16,2.16,0,0,0,0-4.32H27.36a5.3,5.3,0,0,0,0,10.6,1.66,1.66,0,0,0,.32,0,1.66,1.66,0,0,0,.32,0,1,1,0,0,1,0,2H24.23a2.16,2.16,0,1,0,0,4.31H28a5.3,5.3,0,0,0,0-10.59l-.32,0-.32,0a1,1,0,0,1,0-2Z" transform="translate(0.27 0.27)"/><path class="cls-1" d="M89.23,79.58H20.77a5.62,5.62,0,0,0-5.61,5.62v19.46a5.62,5.62,0,0,0,5.61,5.61H89.23a5.62,5.62,0,0,0,5.61-5.61V85.2A5.62,5.62,0,0,0,89.23,79.58Zm1.29,25.08A1.31,1.31,0,0,1,89.23,106H20.77a1.31,1.31,0,0,1-1.29-1.29V85.2a1.32,1.32,0,0,1,1.29-1.3H89.23a1.32,1.32,0,0,1,1.29,1.3Z" transform="translate(0.27 0.27)"/></svg>